<?xml version="1.0" encoding="utf-8"?>
<!-- Uploaded to: SVG Repo, www.svgrepo.com, Generator: SVG Repo Mixer Tools -->
<svg width="800px" height="800px" viewBox="0 0 64 64" xmlns="http://www.w3.org/2000/svg" xmlns:xlink="http://www.w3.org/1999/xlink" aria-hidden="true" role="img" class="iconify iconify--emojione" preserveAspectRatio="xMidYMid meet">
<path d="M40 18H14c-2.2 0-4 1.8-4 4v38h34V22c0-2.2-1.8-4-4-4" fill="#e8e8e8">
</path>
<g fill="#62727a">
<path d="M60 36H26c-1.1 0-2 .9-2 2v22h38V38c0-1.1-.9-2-2-2">
</path>
<path d="M7 36c-.6 0-1.2.4-1.6.8l-2.9 4.3c-.3.5-.5 1.4-.5 1.9v17h8V36H7">
</path>
</g>
<path fill="#b4d7ee" d="M12 53h10v7H12z">
</path>
<path d="M63 60H1c-.6 0-1 .5-1 1v2c0 .6.4 1 1 1h62c.5 0 1-.4 1-1v-2c0-.5-.5-1-1-1" fill="#62727a">
</path>
<g fill="#b4d7ee">
<path d="M14 34.5c0 .3-.2.5-.5.5h-1c-.3 0-.5-.2-.5-.5v-5c0-.3.2-.5.5-.5h1c.3 0 .5.2.5.5v5">
</path>
<path d="M18 34.5c0 .3-.2.5-.5.5h-1c-.3 0-.5-.2-.5-.5v-5c0-.3.2-.5.5-.5h1c.3 0 .5.2.5.5v5">
</path>
<path d="M22 34.5c0 .3-.2.5-.5.5h-1c-.3 0-.5-.2-.5-.5v-5c0-.3.2-.5.5-.5h1c.3 0 .5.2.5.5v5">
</path>
<path d="M26 34.5c0 .3-.2.5-.5.5h-1c-.3 0-.5-.2-.5-.5v-5c0-.3.2-.5.5-.5h1c.3 0 .5.2.5.5v5">
</path>
<path d="M30 34.5c0 .3-.2.5-.5.5h-1c-.3 0-.5-.2-.5-.5v-5c0-.3.2-.5.5-.5h1c.3 0 .5.2.5.5v5">
</path>
<path d="M14 42.5c0 .3-.2.5-.5.5h-1c-.3 0-.5-.2-.5-.5v-5c0-.3.2-.5.5-.5h1c.3 0 .5.2.5.5v5">
</path>
<path d="M18 42.5c0 .3-.2.5-.5.5h-1c-.3 0-.5-.2-.5-.5v-5c0-.3.2-.5.5-.5h1c.3 0 .5.2.5.5v5">
</path>
<path d="M22 42.5c0 .3-.2.5-.5.5h-1c-.3 0-.5-.2-.5-.5v-5c0-.3.2-.5.5-.5h1c.3 0 .5.2.5.5v5">
</path>
<path d="M14 50.5c0 .3-.2.5-.5.5h-1c-.3 0-.5-.2-.5-.5v-5c0-.3.2-.5.5-.5h1c.3 0 .5.2.5.5v5">
</path>
<path d="M18 50.5c0 .3-.2.5-.5.5h-1c-.3 0-.5-.2-.5-.5v-5c0-.3.2-.5.5-.5h1c.3 0 .5.2.5.5v5">
</path>
<path d="M22 50.5c0 .3-.2.5-.5.5h-1c-.3 0-.5-.2-.5-.5v-5c0-.3.2-.5.5-.5h1c.3 0 .5.2.5.5v5">
</path>
<path d="M32 44h30v16H32z">
</path>
<path d="M7 46.5c0 .3-.2.5-.5.5h-1c-.3 0-.5-.2-.5-.5v-5c0-.3.2-.5.5-.5h1c.3 0 .5.2.5.5v5">
</path>
<path d="M7 55.5c0 .3-.2.5-.5.5h-1c-.3 0-.5-.2-.5-.5v-5c0-.3.2-.5.5-.5h1c.3 0 .5.2.5.5v5">
</path>
</g>
<g fill="#ffffff">
<path d="M21 53h-9v7h1v-6h3.5v6h1v-6H21v6h1v-7z">
</path>
<path d="M17.5 56h-1c-.3 0-.5.2-.5.5v1c0 .3.2.5.5.5h1c.3 0 .5-.2.5-.5v-1c0-.3-.2-.5-.5-.5">
</path>
</g>
<path fill="#b2c1c0" d="M13 60h8v2h-8z">
</path>
<path fill="#e8e8e8" d="M13 62h8v2h-8z">
</path>
<path d="M33 44h29v-2H31c-.5 0-1 .5-1 1v17h2v-3c0-.5.5-1 1-1h29v-2H33c-.5 0-1-.4-1-1v-2c0-.5.5-1 1-1h29v-2H33c-.5 0-1-.5-1-1v-2c0-.5.5-1 1-1" fill="#ffffff">
</path>
<g fill="#b4d7ee">
<path d="M14 26.5c0 .3-.2.5-.5.5h-1c-.3 0-.5-.2-.5-.5v-5c0-.3.2-.5.5-.5h1c.3 0 .5.2.5.5v5">
</path>
<path d="M18 26.5c0 .3-.2.5-.5.5h-1c-.3 0-.5-.2-.5-.5v-5c0-.3.2-.5.5-.5h1c.3 0 .5.2.5.5v5">
</path>
<path d="M22 26.5c0 .3-.2.5-.5.5h-1c-.3 0-.5-.2-.5-.5v-5c0-.3.2-.5.5-.5h1c.3 0 .5.2.5.5v5">
</path>
<path d="M26 26.5c0 .3-.2.5-.5.5h-1c-.3 0-.5-.2-.5-.5v-5c0-.3.2-.5.5-.5h1c.3 0 .5.2.5.5v5">
</path>
<path d="M30 26.5c0 .3-.2.5-.5.5h-1c-.3 0-.5-.2-.5-.5v-5c0-.3.2-.5.5-.5h1c.3 0 .5.2.5.5v5">
</path>
<path d="M34 34.5c0 .3-.2.5-.5.5h-1c-.3 0-.5-.2-.5-.5v-5c0-.3.2-.5.5-.5h1c.3 0 .5.2.5.5v5">
</path>
<path d="M34 26.5c0 .3-.2.5-.5.5h-1c-.3 0-.5-.2-.5-.5v-5c0-.3.2-.5.5-.5h1c.3 0 .5.2.5.5v5">
</path>
<path d="M38 34.5c0 .3-.2.5-.5.5h-1c-.3 0-.5-.2-.5-.5v-5c0-.3.2-.5.5-.5h1c.3 0 .5.2.5.5v5">
</path>
<path d="M38 26.5c0 .3-.2.5-.5.5h-1c-.3 0-.5-.2-.5-.5v-5c0-.3.2-.5.5-.5h1c.3 0 .5.2.5.5v5">
</path>
<path d="M42 34.5c0 .3-.2.5-.5.5h-1c-.3 0-.5-.2-.5-.5v-5c0-.3.2-.5.5-.5h1c.3 0 .5.2.5.5v5">
</path>
<path d="M42 26.5c0 .3-.2.5-.5.5h-1c-.3 0-.5-.2-.5-.5v-5c0-.3.2-.5.5-.5h1c.3 0 .5.2.5.5v5">
</path>
</g>
<path fill="#b2c1c0" d="M19 8h16v10H19z">
</path>
<circle cx="27" cy="8" r="8" fill="#e8e8e8">
</circle>
<path d="M32 6h-3V3c0-.5-.5-1-1-1h-2c-.5 0-1 .5-1 1v3h-3c-.5 0-1 .4-1 1v2c0 .6.5 1 1 1h3v3c0 .6.5 1 1 1h2c.5 0 1-.4 1-1v-3h3c.5 0 1-.4 1-1V7c0-.6-.5-1-1-1" fill="#f15744">
</path>
</svg>